<?xml version="1.0" encoding="UTF-8" standalone="no"?>
<!-- Created with Inkscape (http://www.inkscape.org/) -->

<svg
   width="297mm"
   height="210mm"
   viewBox="0 0 297 210"
   version="1.1"
   id="svg5"
   sodipodi:docname="back.svg"
   inkscape:version="1.2.1 (9c6d41e410, 2022-07-14)"
   inkscape:export-filename="../assets/back.png"
   inkscape:export-xdpi="96"
   inkscape:export-ydpi="96"
   xmlns:inkscape="http://www.inkscape.org/namespaces/inkscape"
   xmlns:sodipodi="http://sodipodi.sourceforge.net/DTD/sodipodi-0.dtd"
   xmlns="http://www.w3.org/2000/svg"
   xmlns:svg="http://www.w3.org/2000/svg">
  <sodipodi:namedview
     id="namedview7"
     pagecolor="#ffffff"
     bordercolor="#000000"
     borderopacity="0.25"
     inkscape:showpageshadow="2"
     inkscape:pageopacity="0.0"
     inkscape:pagecheckerboard="0"
     inkscape:deskcolor="#d1d1d1"
     inkscape:document-units="mm"
     showgrid="false"
     inkscape:zoom="0.78127806"
     inkscape:cx="708.45456"
     inkscape:cy="440.30419"
     inkscape:window-width="948"
     inkscape:window-height="1041"
     inkscape:window-x="5"
     inkscape:window-y="32"
     inkscape:window-maximized="1"
     inkscape:current-layer="layer2" />
  <defs
     id="defs2" />
  <g
     inkscape:groupmode="layer"
     id="layer2"
     inkscape:label="Layer 2">
    <rect
       style="fill:#00ff00;stroke-width:0.264583"
       id="rect780"
       width="314.02527"
       height="102.8703"
       x="-3.0999992"
       y="126.77995" />
    <rect
       style="fill:#37abc8;stroke-width:0.264583"
       id="rect992"
       width="355.31876"
       height="139.64555"
       x="-26.420462"
       y="-9.4525824" />
  </g>
  <g
     inkscape:label="Layer 1"
     inkscape:groupmode="layer"
     id="layer1">
    <rect
       style="fill:#803300;stroke-width:0.264583"
       id="rect118"
       width="125.54447"
       height="93.693558"
       x="36.228363"
       y="59.268639" />
    <rect
       style="fill:#803300;stroke-width:0.264583"
       id="rect120"
       width="112.17257"
       height="74.775497"
       x="181.6272"
       y="78.195877" />
    <path
       style="fill:#aa0000;stroke-width:0.264583"
       d="m 38.256527,59.717278 c -1.348946,0 -2.697895,0 -4.046842,0 -3.511917,0 -6.922296,0.09184 -10.424084,0.297833 -1.457215,0.08572 -3.113757,-0.24834 -4.567216,0 -0.793202,0.135528 -4.300598,1.12163 -5.340423,0.595651 -0.155576,-0.0787 0,-2.091573 0,-2.373246 4.326782,-6.368296 9.520869,-12.118574 15.11254,-17.381322 1.376276,-1.295318 2.719292,-2.996485 4.467463,-3.871801 0.315377,-0.15791 0.865813,0.149293 1.185291,0 2.749232,-1.284719 1.34162,-1.142148 4.169622,-2.084821 5.149772,-1.7166 -1.272292,0.93655 2.382652,-0.893494 0.384274,-0.192408 0.750289,0.109723 1.173013,-0.179104 5.392632,-3.684531 10.28714,-8.091355 16.025713,-11.279475 1.147439,-0.637472 2.328508,-0.548779 3.569452,-0.893485 2.602101,-0.722803 5.171461,-1.559565 7.743601,-2.382652 3.174237,-1.015759 6.296847,-2.169862 9.530569,-2.978306 0.09631,-0.02408 0.198555,0 0.297832,0 0.296157,0 0.602336,0.07639 0.888472,0 2.306016,-0.615633 4.597323,-1.296351 6.850106,-2.084821 4.279869,-1.497947 1.049912,-0.880842 5.063116,-2.084811 0.281384,-0.08442 0.633101,0.157131 0.88132,0 0.174525,-0.11048 -0.110046,-0.400921 -0.202419,-0.585669 9.967815,8.82349 21.977745,14.997092 33.606665,21.309923 3.3435,1.815042 9.02934,4.714855 12.21107,7.147938 0.78069,0.596997 1.34214,1.441158 2.08482,2.084821 0.75022,0.650192 1.61428,1.158322 2.38264,1.786979 0.32598,0.266719 0.53243,0.676598 0.89349,0.893495 0.16969,0.101937 0.41243,-0.07917 0.59387,0 0.50804,0.221688 0.90469,0.656027 1.4135,0.875936 3.73878,1.615895 7.83369,2.359109 11.61541,3.8718 0.80198,0.320791 2.0398,1.150482 2.67007,1.482223 4.62482,2.434264 8.58226,5.61961 12.80674,8.637095 0.38109,0.272207 0.91549,0.314525 1.13254,0.467717"
       id="path343" />
    <path
       style="fill:#c83737;stroke-width:0.264583"
       d="m 185.08372,78.130211 c -5.52987,0.80645 -11.02244,2.058228 -16.60207,2.523199 -0.79148,0.06596 -1.58844,0 -2.38266,0 -0.94234,0 -0.71054,-0.339325 -0.71054,-1.195956 11.82341,-17.50428 25.09463,-34.366605 41.8125,-47.481526 3.40092,-2.667969 7.52692,-5.374431 11.31758,-7.7436 1.89173,-1.182328 4.72196,-3.573974 7.27322,-3.573974 12.10423,8.030185 22.62438,18.475576 35.42363,25.45179 3.40791,1.857478 10.15076,4.8092 13.88436,6.176115 4.71841,1.727469 9.47992,3.349323 14.30044,4.767124 3.40708,1.002082 6.58857,1.589793 9.8284,2.978306 0.17713,0.07591 0.41955,-0.109495 0.57813,0 0.0889,0.06135 0.13936,1.65923 0.29782,2.015763 4.19845,8.396813 0.19649,0.05827 3.57397,8.041432 0.78041,1.844598 3.87179,7.306865 3.87179,9.220605"
       id="path345" />
    <path
       style="fill:#c83737;stroke-width:0.264583"
       d="M 99.803004,52.605897 95.382431,48.528102"
       id="path410" />
  </g>
</svg>
