<?xml version="1.0" encoding="UTF-8" standalone="no"?>
<!-- Created with Inkscape (http://www.inkscape.org/) -->

<svg
   width="500"
   height="500"
   viewBox="0 0 500 500"
   version="1.1"
   id="svg5"
   inkscape:version="1.2.1 (9c6d41e410, 2022-07-14)"
   sodipodi:docname="icon.svg"
   inkscape:export-filename="../assets/icon_500.png"
   inkscape:export-xdpi="96"
   inkscape:export-ydpi="96"
   xmlns:inkscape="http://www.inkscape.org/namespaces/inkscape"
   xmlns:sodipodi="http://sodipodi.sourceforge.net/DTD/sodipodi-0.dtd"
   xmlns="http://www.w3.org/2000/svg"
   xmlns:svg="http://www.w3.org/2000/svg">
  <sodipodi:namedview
     id="namedview7"
     pagecolor="#ffffff"
     bordercolor="#000000"
     borderopacity="0.25"
     inkscape:showpageshadow="2"
     inkscape:pageopacity="0.0"
     inkscape:pagecheckerboard="0"
     inkscape:deskcolor="#d1d1d1"
     inkscape:document-units="px"
     showgrid="false"
     inkscape:zoom="0.78127806"
     inkscape:cx="163.19414"
     inkscape:cy="309.74888"
     inkscape:window-width="1908"
     inkscape:window-height="1041"
     inkscape:window-x="5"
     inkscape:window-y="32"
     inkscape:window-maximized="1"
     inkscape:current-layer="layer1" />
  <defs
     id="defs2" />
  <g
     inkscape:label="Layer 1"
     inkscape:groupmode="layer"
     id="layer1">
    <rect
       style="fill:#ffdea8;stroke-width:2.18232"
       id="rect513"
       width="500"
       height="500"
       x="0"
       y="0"
       ry="0" />
    <g
       id="g181"
       inkscape:label="Tomato"
       transform="matrix(6.202129,0,0,6.4549385,181.89352,235.5123)">
      <ellipse
         style="fill:#d40000;stroke-width:0.264583"
         id="ellipse177"
         cx="24.396654"
         cy="25.340862"
         rx="12.871429"
         ry="12.13217" />
      <path
         style="fill:#008000;stroke-width:0.264583"
         d="M 21.153828,13.728205 20.123603,4.9658402 c 0,0 3.641771,6.6716158 6.946092,7.4221698 1.809001,0.410902 10.258303,-5.5880091 10.258303,-5.5880091 0,0 -2.737861,8.2589131 -1.563078,10.2908251 0.771677,1.334698 9.592545,3.503332 9.592545,3.503332 0,0 -8.150276,2.59894 -8.480653,1.977214 -4.09169,-7.700027 -15.722984,-8.843167 -15.722984,-8.843167 z"
         id="path179"
         sodipodi:nodetypes="ccscscsc" />
    </g>
    <g
       id="g909"
       inkscape:label="Sword"
       transform="matrix(7.9100674,6.8841012,-6.5670257,8.2919891,-44.636976,-327.61055)">
      <rect
         style="fill:#cccccc;stroke-width:0.264583"
         id="rect848"
         width="8.8883963"
         height="26.823122"
         x="39.402855"
         y="5.9689336"
         ry="4.0136299" />
      <rect
         style="fill:#666666;stroke-width:0.264583"
         id="rect902"
         width="17.762014"
         height="4.5136037"
         x="34.966049"
         y="29.504391"
         ry="2.2568018" />
      <rect
         style="fill:#666666;stroke-width:0.264583"
         id="rect904"
         width="5.7183557"
         height="10.133124"
         x="40.987877"
         y="32.437836"
         ry="2.2568018" />
    </g>
  </g>
</svg>
