<?xml version="1.0" encoding="UTF-8" standalone="no"?>
<!-- Created with Inkscape (http://www.inkscape.org/) -->

<svg
   width="210mm"
   height="297mm"
   viewBox="0 0 210 297"
   version="1.1"
   id="svg5"
   inkscape:version="1.2.1 (9c6d41e410, 2022-07-14)"
   sodipodi:docname="items.svg"
   inkscape:export-filename="../assets/items.png"
   inkscape:export-xdpi="96"
   inkscape:export-ydpi="96"
   xmlns:inkscape="http://www.inkscape.org/namespaces/inkscape"
   xmlns:sodipodi="http://sodipodi.sourceforge.net/DTD/sodipodi-0.dtd"
   xmlns="http://www.w3.org/2000/svg"
   xmlns:svg="http://www.w3.org/2000/svg">
  <sodipodi:namedview
     id="namedview7"
     pagecolor="#ffffff"
     bordercolor="#000000"
     borderopacity="0.25"
     inkscape:showpageshadow="2"
     inkscape:pageopacity="0.0"
     inkscape:pagecheckerboard="0"
     inkscape:deskcolor="#d1d1d1"
     inkscape:document-units="px"
     showgrid="false"
     inkscape:zoom="2.1607185"
     inkscape:cx="284.39613"
     inkscape:cy="161.98315"
     inkscape:window-width="1908"
     inkscape:window-height="1041"
     inkscape:window-x="5"
     inkscape:window-y="32"
     inkscape:window-maximized="1"
     inkscape:current-layer="layer1" />
  <defs
     id="defs2" />
  <g
     inkscape:label="Layer 1"
     inkscape:groupmode="layer"
     id="layer1">
    <g
       id="g909"
       inkscape:label="Sword"
       transform="matrix(0.76977028,0.66992807,-0.63907181,0.80693705,15.901776,-27.636294)">
      <rect
         style="fill:#cccccc;stroke-width:0.264583"
         id="rect848"
         width="8.8883963"
         height="26.823122"
         x="39.402855"
         y="5.9689336"
         ry="4.0136299" />
      <rect
         style="fill:#666666;stroke-width:0.264583"
         id="rect902"
         width="17.762014"
         height="4.5136037"
         x="34.966049"
         y="29.504391"
         ry="2.2568018" />
      <rect
         style="fill:#666666;stroke-width:0.264583"
         id="rect904"
         width="5.7183557"
         height="10.133124"
         x="40.987877"
         y="32.437836"
         ry="2.2568018" />
    </g>
    <g
       id="g1166"
       transform="matrix(0.25450623,0.19856576,-0.19431145,0.26007846,50.366352,-8.0700742)"
       inkscape:label="Key">
      <rect
         style="fill:#666666;stroke-width:0.264583"
         id="rect911"
         width="7.76018"
         height="34.486271"
         x="58.862751"
         y="6.4564667"
         ry="0" />
      <rect
         style="fill:#666666;stroke-width:0.264583"
         id="rect913"
         width="18.491053"
         height="4.8403883"
         x="58.834679"
         y="6.4564667" />
      <rect
         style="fill:#666666;stroke-width:0.264583"
         id="rect915"
         width="18.491053"
         height="4.8403883"
         x="58.834679"
         y="16.015869" />
      <path
         id="path969"
         style="fill:#666666;stroke-width:0.264583"
         d="M 55.647359 40.599758 A 11.655696 11.655696 45 0 0 51.087426 49.847339 A 11.655696 11.655696 45 0 0 62.743707 61.503009 A 11.655696 11.655696 45 0 0 74.398663 49.846742 A 11.655696 11.655696 45 0 0 62.74334 38.192327 A 11.655696 11.655696 45 0 0 55.647359 40.599758 z M 58.739409 44.631063 A 6.5757332 6.5757332 45 0 1 62.742898 43.271323 A 6.5757332 6.5757332 45 0 1 69.318514 49.846817 A 6.5757332 6.5757332 45 0 1 62.743191 56.422758 A 6.5757332 6.5757332 45 0 1 56.167575 49.847263 A 6.5757332 6.5757332 45 0 1 58.739409 44.631063 z " />
    </g>
    <g
       id="g181"
       inkscape:label="Tomato"
       transform="matrix(0.39102248,0,0,0.40696123,0.78504473,37.666596)">
      <ellipse
         style="fill:#d40000;stroke-width:0.264583"
         id="ellipse177"
         cx="24.396654"
         cy="25.340862"
         rx="12.871429"
         ry="12.13217" />
      <path
         style="fill:#008000;stroke-width:0.264583"
         d="M 21.153828,13.728205 20.123603,4.9658402 c 0,0 3.641771,6.6716158 6.946092,7.4221698 1.809001,0.410902 10.258303,-5.5880091 10.258303,-5.5880091 0,0 -2.737861,8.2589131 -1.563078,10.2908251 0.771677,1.334698 9.592545,3.503332 9.592545,3.503332 0,0 -8.150276,2.59894 -8.480653,1.977214 -4.09169,-7.700027 -15.722984,-8.843167 -15.722984,-8.843167 z"
         id="path179"
         sodipodi:nodetypes="ccscscsc" />
    </g>
    <g
       id="g408"
       inkscape:label="Tomato"
       transform="matrix(0.50922562,0,0,0.54021137,15.297727,32.673309)">
      <ellipse
         style="fill:#c87137;stroke-width:0.264583"
         id="ellipse404"
         cx="24.396654"
         cy="25.340862"
         rx="12.871429"
         ry="12.13217" />
      <path
         style="fill:#c87137;stroke-width:0.663262"
         d="m 26.79525,13.476312 c 0,0 6.978617,1.966588 9.008064,0.343796 2.02944,-1.622791 2.37528,-0.644305 0.313672,0.906912 -2.061615,1.551217 0.04412,5.880486 0.04412,5.880486 z"
         id="path602" />
    </g>
    <path
       style="fill:#ffffff;stroke-width:0.257623"
       d="m 29.104167,58.819183 -0.175743,25.206568 c 0,0 -14.534979,2.682729 -21.2061889,0.193413 C 2.2276594,82.168902 12.777048,77.055805 11.46973,72.217784 10.764785,70.183058 -2.2374471,75.271127 4.6534832,68.601677 6.5781211,66.738899 12.329073,67.839634 10.109557,65.327605 7.5578711,63.974764 -0.11302,61.260995 10.717409,59.812751 16.22663,59.076059 29.104167,58.819183 29.104167,58.819183 Z"
       id="path497"
       sodipodi:nodetypes="ccscscsc" />
    <path
       id="path1101"
       style="fill:#aa8800;stroke-width:0.18381"
       d="m 37.402113,50.335063 c -1.392016,-2.353556 1.456338,-7.87135 4.970123,-9.493833 4.307114,-1.988801 6.573437,-1.330044 7.543263,1.388594 0.969828,2.718637 0.05876,5.746951 -4.03121,8.456464 -4.08997,2.709513 -6.291927,3.351941 -8.482176,-0.351225 z"
       sodipodi:nodetypes="sssss" />
    <ellipse
       style="fill:#554400;stroke-width:0.264583"
       id="ellipse1162"
       cx="46.402107"
       cy="45.61261"
       rx="0.7340582"
       ry="0.54460019" />
    <path
       style="fill:#554400;stroke-width:0.264583"
       d="m 41.606645,41.268326 c 0,0 -2.384195,2.008647 -1.888199,3.077545 0.495998,1.068901 0.365166,2.625282 0.365166,2.625282 0,0 -0.296486,-0.794171 -0.447164,-1.228024 -0.150677,-0.433853 -0.512104,-2.293567 -0.102749,-2.661743 0.409356,-0.368176 1.625183,-1.849389 2.072946,-1.81306 z"
       id="path1226"
       sodipodi:nodetypes="cscssc" />
    <g
       id="g2200"
       transform="matrix(0.30798442,-0.33830501,0.29425742,0.35408682,22.887978,53.920632)">
      <path
         id="path2030"
         style="fill:#ff6600;stroke-width:0.264583"
         d="m 62.390326,42.519046 c -5.896474,4.7e-5 -8.506876,1.863898 -8.506793,4.630531 0.0027,2.531511 2.376422,4.287704 7.732226,4.593704 l 1.57042,0.384346 1.342182,0.03095 0.03152,5.16e-4 0.03152,-5.16e-4 c 0,0 11.332168,0.770877 12.564608,0 0.893795,-0.940514 -5.38e-4,-10.022754 -5.38e-4,-10.022754 -0.987119,-0.826534 -9.282701,0.0053 -9.282701,0.0053 -1.069026,-0.163632 -4.357975,0.377954 -5.482449,0.377938 z"
         sodipodi:nodetypes="cccccccccccc" />
      <path
         style="fill:#008000;stroke-width:0.264583"
         d="m 77.060914,42.177088 c 0,0 3.897662,0.741498 4.815819,-0.736536 0.918157,-1.478037 0.569532,-2.865682 0.569532,-2.865682 0,0 0.729656,1.837903 0.720467,3.812089 -0.01013,2.177286 -3.646372,2.467341 -3.646372,2.467341 0,0 7.283892,0.91514 8.945313,0.906636 0.584596,-0.003 -9.007933,0.587018 -8.432869,1.247838 0.0011,0.90664 5.878823,1.631318 5.878823,1.631318 0,0 -4.3708,1.165469 -4.324678,2.456733 0,0 3.770396,1.461653 6.919286,2.492542 3.960435,0.5502 -11.359314,-1.38584 -11.359314,-1.38584 z"
         id="path2142"
         sodipodi:nodetypes="cscscscccccc" />
    </g>
  </g>
</svg>
